#!OML:ASF F:\VICON\USERDATA\Patient Classification 1\PLAYGROUND\JustinFriday\JustinFriday.ASF
:FULLY-SPECIFIED
:DEGREES
3532
root 26.4883 30.8374 -9.91833 242.156 -93.8957 -206.941
lowerback 24.5838 3.04015 0.0249812
upperback 10.9493 3.08876 2.87672
thorax -1.75395 1.08286 2.31607
lowerneck -0.659989 6.14384 13.34
upperneck -12.495 7.72942 -8.42415
head -2.74362 3.53006 -4.84859
rclavicle -5.24792e-014 -3.73715e-014
rhumerus -8.17744 20.0012 -74.9735
rradius 66.7033
rwrist 23.7635
rhand -45.7545 1.53208
rfingers 7.12502
rthumb -18.5095 -387.607
lclavicle -5.24792e-014 -3.73715e-014
lhumerus -3.35051 -29.2806 83.2251
lradius 62.0998
lwrist -35.5613
lhand -32.372 -28.3368
lfingers 7.12502
lthumb -5.6079 1.56899
rfemur -28.1592 1.72839 27.8213
rtibia 32.2638
rfoot -34.1774 -4.47917
rtoes 15.3648
lfemur -31.5176 8.50192 -17.84
ltibia 35.0177
lfoot -31.1306 -11.6895
ltoes 5.22196
3533
root 26.4533 30.8291 -9.93478 241.901 -93.8925 -206.646
lowerback 24.2768 3.08708 -0.270064
upperback 10.9946 3.08994 2.94643
thorax -1.57609 1.07328 2.56755
lowerneck -0.618522 6.13985 13.4564
upperneck -12.4402 7.72809 -8.49914
head -2.72609 3.53039 -4.8897
rclavicle -3.81667e-014 -3.37934e-014
rhumerus -8.18045 20.3154 -74.9167
rradius 66.513
rwrist 23.6386
rhand -46.2562 1.34826
rfingers 7.12502
rthumb -18.9921 -387.745
lclavicle -3.81667e-014 -3.37934e-014
lhumerus -3.2532 -29.2 83.2508
lradius 61.6314
lwrist -35.5817
lhand -32.5795 -28.6097
lfingers 7.12502
lthumb -5.80821 1.29074
rfemur -27.9788 1.57009 27.9142
rtibia 32.0933
rfoot -34.1412 -4.89921
rtoes 13.8992
lfemur -31.3923 8.99272 -17.9299
ltibia 34.9097
lfoot -31.4821 -11.5211
ltoes 3.4371
3534
root 26.4208 30.8226 -9.94647 243.446 -93.9086 -208.068
lowerback 23.8064 3.25879 -0.605186
upperback 11.1 3.23957 3.07708
thorax -1.26632 1.13012 2.8763
lowerneck -0.797033 6.1206 13.8461
upperneck -12.3364 7.66352 -8.75463
head -2.64602 3.49104 -5.02051
rclavicle 9.54166e-015 3.57812e-015
rhumerus -8.19571 20.3347 -74.8676
rradius 66.3973
rwrist 23.6088
rhand -46.6387 1.47037
rfingers 7.12502
rthumb -19.3599 -387.586
lclavicle 9.54166e-015 3.57812e-015
lhumerus -3.39483 -29.4716 82.9561
lradius 61.827
lwrist -35.2855
lhand -32.7104 -28.8058
lfingers 7.12502
lthumb -5.93466 1.09112
rfemur -27.8765 1.63877 28.0242
rtibia 31.9098
rfoot -34.0184 -5.40935
rtoes 11.8965
lfemur -31.3696 9.39642 -17.8756
ltibia 34.8262
lfoot -31.6031 -11.7932
ltoes 3.02674
3535
root 26.3932 30.8102 -9.95278 243.63 -94.1698 -208.238
lowerback 23.5227 3.06772 -0.679264
upperback 11.1568 2.98926 3.37986
thorax -1.07073 0.99308 3.31498
lowerneck -0.633443 6.22557 13.0794
upperneck -12.3387 7.83053 -8.6251
head -2.68826 3.6089 -4.86384
rclavicle -4.13472e-014 -6.59965e-014
rhumerus -8.11162 21.2493 -74.5793
rradius 66.3282
rwrist 23.5287
rhand -46.8386 1.42803
rfingers 7.12502
rthumb -19.5521 -387.609
lclavicle -4.13472e-014 -6.59965e-014
lhumerus -3.87213 -29.1662 82.6547
lradius 62.3837
lwrist -34.7072
lhand -32.6967 -28.8159
lfingers 7.12502
lthumb -5.92138 1.08137
rfemur -27.6832 1.64298 28.2698
rtibia 31.7626
rfoot -34.1863 -5.37124
rtoes 11.5918
lfemur -31.2479 9.40077 -17.5526
ltibia 34.7052
lfoot -31.4566 -12.4487
ltoes 4.27456
3536
root 26.3687 30.7916 -9.9616 241.142 -94.2693 -205.868
lowerback 23.6316 3.2054 0.148074
upperback 11.1201 3.31771 2.83812
thorax -1.10699 1.20315 2.17783
lowerneck -1.042 5.86779 14.3318
upperneck -12.0786 7.31171 -8.53039
head -2.5654 3.28581 -5.01608
rclavicle -2.38542e-014 9.93923e-015
rhumerus -8.90768 19.7392 -75.372
rradius 66.4259
rwrist 23.6084
rhand -47.0142 1.45213
rfingers 7.12502
rthumb -19.7209 -387.567
lclavicle -2.38542e-014 9.93923e-015
lhumerus -3.1329 -30.1521 83.4786
lradius 60.8667
lwrist -36.0855
lhand -32.9186 -28.9185
lfingers 7.12502
lthumb -6.1356 0.97269
rfemur -27.3595 1.5923 28.2373
rtibia 31.6454
rfoot -34.52 -5.1691
rtoes 12.2093
lfemur -30.9537 9.3404 -17.5246
ltibia 34.5374
lfoot -31.5539 -12.7209
ltoes 4.36441
3537
root 26.347 30.7739 -9.97281 237.424 -94.1322 -202.28
lowerback 23.7023 3.29407 0.0542592
upperback 11.1204 3.40879 2.67293
thorax -1.14021 1.25104 2.02923
lowerneck -1.0885 5.70497 14.6124
upperneck -11.9814 7.09417 -8.45369
head -2.54902 3.16345 -5.03509
rclavicle 2.8625e-014 -9.14409e-015
rhumerus -9.3861 19.5644 -75.3542
rradius 66.7267
rwrist 23.3245
rhand -47.1236 1.4852
rfingers 7.12502
rthumb -19.8261 -387.524
lclavicle 2.8625e-014 -9.14409e-015
lhumerus -3.55889 -31.3142 82.3922
lradius 61.8445
lwrist -35.0304
lhand -32.9594 -28.7364
lfingers 7.12502
lthumb -6.17498 1.15364
rfemur -27.0398 1.55925 27.938
rtibia 31.5374
rfoot -34.7678 -5.30484
rtoes 11.8133
lfemur -30.6254 9.30896 -17.7902
ltibia 34.3717
lfoot -31.8791 -12.9186
ltoes 4.33217
3538
root 26.3214 30.7596 -9.97903 236.011 -94.1693 -200.926
lowerback 23.58 3.28941 -0.223542
upperback 11.1091 3.35886 2.8699
thorax -1.11963 1.21282 2.41391
lowerneck -0.919953 5.67026 14.324
upperneck -11.9051 7.07427 -8.45949
head -2.56401 3.1744 -4.99487
rclavicle 9.54166e-015 1.11319e-014
rhumerus -9.89301 20.0189 -75.219
rradius 67.0962
rwrist 23.3355
rhand -47.189 1.46823
rfingers 7.12502
rthumb -19.889 -387.534
lclavicle 9.54166e-015 1.11319e-014
lhumerus -3.80137 -30.8002 83.2982
lradius 61.3473
lwrist -35.7211
lhand -33.0282 -28.9141
lfingers 7.12502
lthumb -6.24148 0.973927
rfemur -26.8041 1.3811 27.927
rtibia 31.4591
rfoot -35.0244 -5.33686
rtoes 11.0977
lfemur -30.3716 9.25617 -17.78
ltibia 34.2157
lfoot -32.0138 -13.8502
ltoes 6.36547
3539
root 26.2944 30.7425 -9.98978 236.337 -94.2181 -201.284
lowerback 23.4454 3.31407 -0.368394
upperback 11.0647 3.37449 3.01172
thorax -1.12063 1.21433 2.64782
lowerneck -0.899116 5.6321 14.2032
upperneck -11.7083 7.03085 -8.46446
head -2.51694 3.16658 -4.97259
rclavicle -7.95139e-015 2.14687e-014
rhumerus -10.3997 20.3296 -75.1349
rradius 67.3757
rwrist 23.2128
rhand -47.2504 1.53367
rfingers 7.12502
rthumb -19.948 -387.462
lclavicle -7.95139e-015 2.14687e-014
lhumerus -3.89778 -30.3061 84.1819
lradius 60.5849
lwrist -36.4376
lhand -33.1542 -29.4064
lfingers 7.12502
lthumb -6.36311 0.477997
rfemur -26.606 1.34131 28.0434
rtibia 31.3705
rfoot -35.3058 -5.39503
rtoes 10.7723
lfemur -30.1905 9.37437 -17.6609
ltibia 34.1018
lfoot -32.0855 -14.7112
ltoes 7.94623
3540
root 26.2726 30.722 -10.002 235.788 -94.1471 -200.824
lowerback 23.4125 3.40141 -0.447969
upperback 11.0815 3.46732 2.95683
thorax -1.09242 1.25876 2.6129
lowerneck -0.999671 5.5443 14.3559
upperneck -11.5639 6.90463 -8.42404
head -2.4693 3.09797 -4.97825
rclavicle 2.62396e-014 1.35174e-014
rhumerus -10.5356 20.0711 -75.4012
rradius 67.0892
rwrist 23.2878
rhand -47.4109 1.64501
rfingers 7.12502
rthumb -20.1022 -387.335
lclavicle 2.62396e-014 1.35174e-014
lhumerus -4.30837 -31.074 83.3773
lradius 61.2707
lwrist -35.6434
lhand -33.4366 -29.3666
lfingers 7.12502
lthumb -6.63574 0.509401
rfemur -26.3343 1.61598 27.9746
rtibia 31.2392
rfoot -35.4297 -5.97229
rtoes 10.1095
lfemur -29.9974 9.41162 -17.6386
ltibia 34.0916
lfoot -32.2056 -15.1603
ltoes 8.94639
3541
root 26.2561 30.7001 -10.002 233.988 -94.3253 -199.143
lowerback 23.3958 3.35737 -0.115595
upperback 11.1494 3.46598 2.83109
thorax -0.982136 1.27116 2.29198
lowerneck -1.12539 5.43959 14.623
upperneck -11.498 6.75158 -8.34715
head -2.44284 3.00579 -4.99273
rclavicle 3.18055e-015 -4.8901e-014
rhumerus -10.4462 19.5965 -75.8192
rradius 66.4849
rwrist 23.4725
rhand -47.9571 2.02894
rfingers 7.12502
rthumb -20.6272 -386.895
lclavicle 3.18055e-015 -4.8901e-014
lhumerus -4.32176 -31.8478 82.7106
lradius 61.4828
lwrist -35.3262
lhand -33.8732 -28.9565
lfingers 7.12502
lthumb -7.05715 0.905802
rfemur -26.0378 1.70063 28.0005
rtibia 31.109
rfoot -35.4748 -6.73182
rtoes 8.97546
lfemur -29.8116 9.078 -17.4875
ltibia 34.1486
lfoot -32.4186 -15.2224
ltoes 9.4281
